/* XPM */
static char *_2ddbdb9c3a54f3ccb878ea09844ac9941G4WyJbuuDw04yt[] = {
/* columns rows colors chars-per-pixel */
"16 16 9 1 ",
"  c #0A0D2A",
". c None",
"X c #0A0D2A",
"o c #7D7DEA",
"O c #0000C0",
"+ c #F3CB87",
"@ c white",
"# c #BC9148",
"$ c #684722",
/* pixels */
"   XoXXXXX      ",
"   XooOOoX      ",
"  XXOoooXX    XX",
"  XooO++X    XX@",
"  XXX++XXXX XXo@",
"XXXOOX##OoXXXo@X",
"+#ooOOOOoo#++@XX",
"++$ooooooX$++XX ",
"XXXOXXXXXXooXX  ",
"  XOOOOoOX@XX   ",
" XXOOOOoOOXX    ",
" XOOOOOoOOX     ",
".XOOOOoXOXX.    ",
".XXOOOoXXXX.    ",
"............    ",
"  ........      "
};
