/* XPM */
static char *f26829ac6d1d4b1eb9a021f1fb1f28d4VUf02OgyVFiDSLAs[] = {
/* columns rows colors chars-per-pixel */
"16 16 9 1 ",
"  c #0A0D2A",
". c None",
"X c #0A0D2A",
"o c #7D7DEA",
"O c white",
"+ c #0000C0",
"@ c #F3CB87",
"# c #BC9148",
"$ c #684722",
/* pixels */
"      XoXX  XXXX",
"     XXooXXXXOOX",
"    XX+oo+oXXOOX",
"    Xoo+@@XXXOXX",
"    XXX@@XXXXOX ",
"   XX++X##+oXoX ",
"  XXoo++++oo@@X ",
"  X@#oooooo$@@X ",
"  X@@+XXXXXXooX ",
"  XXXX+++o+XOXX ",
"    XX+++o+XOX  ",
"    X++++o+XOX  ",
"   .X++++ooXOX. ",
"   .X++oooXXXX. ",
"   ............ ",
"     ........   "
};
